<svg width="40" height="40" viewBox="0 0 40 40" fill="none" xmlns="http://www.w3.org/2000/svg">
<g clip-path="url(#clip0_5_7)">
<path fill-rule="evenodd" clip-rule="evenodd" d="M6.25 0C4.92392 0 3.65215 0.526784 2.71447 1.46447C1.77678 2.40215 1.25 3.67392 1.25 5V35C1.25 36.3261 1.77678 37.5979 2.71447 38.5355C3.65215 39.4732 4.92392 40 6.25 40H33.75C35.0761 40 36.3479 39.4732 37.2855 38.5355C38.2232 37.5979 38.75 36.3261 38.75 35V5C38.75 3.67392 38.2232 2.40215 37.2855 1.46447C36.3479 0.526784 35.0761 0 33.75 0L6.25 0ZM18.75 5C18.087 5 17.4511 5.26339 16.9822 5.73223C16.5134 6.20107 16.25 6.83696 16.25 7.5V15C16.25 15.663 16.5134 16.2989 16.9822 16.7678C17.4511 17.2366 18.087 17.5 18.75 17.5H21.25C21.913 17.5 22.5489 17.2366 23.0178 16.7678C23.4866 16.2989 23.75 15.663 23.75 15V7.5C23.75 6.83696 23.4866 6.20107 23.0178 5.73223C22.5489 5.26339 21.913 5 21.25 5H18.75ZM6.25 7.5C6.25 6.83696 6.51339 6.20107 6.98223 5.73223C7.45107 5.26339 8.08696 5 8.75 5H11.25C11.913 5 12.5489 5.26339 13.0178 5.73223C13.4866 6.20107 13.75 6.83696 13.75 7.5V25C13.75 25.663 13.4866 26.2989 13.0178 26.7678C12.5489 27.2366 11.913 27.5 11.25 27.5H8.75C8.08696 27.5 7.45107 27.2366 6.98223 26.7678C6.51339 26.2989 6.25 25.663 6.25 25V7.5ZM28.75 5C28.087 5 27.4511 5.26339 26.9822 5.73223C26.5134 6.20107 26.25 6.83696 26.25 7.5V32.5C26.25 33.163 26.5134 33.7989 26.9822 34.2678C27.4511 34.7366 28.087 35 28.75 35H31.25C31.913 35 32.5489 34.7366 33.0178 34.2678C33.4866 33.7989 33.75 33.163 33.75 32.5V7.5C33.75 6.83696 33.4866 6.20107 33.0178 5.73223C32.5489 5.26339 31.913 5 31.25 5H28.75Z" fill="#FDF2E4"/>
</g>
<defs>
<clipPath id="clip0_5_7">
<rect width="40" height="40" fill="white"/>
</clipPath>
</defs>
</svg>
